<?xml version="1.0" encoding="utf-8" ?>
<svg baseProfile="full" height="200px" version="1.1" width="600px" xmlns="http://www.w3.org/2000/svg" xmlns:ev="http://www.w3.org/2001/xml-events" xmlns:xlink="http://www.w3.org/1999/xlink"><defs /><rect fill="#42359C" height="6.75px" rx="2px" stroke="#42359C" stroke-width="1" width="6.75px" x="38.5851253173" y="44.6638258387" /><rect fill="#42359C" height="6.75px" rx="2px" stroke="#42359C" stroke-width="1" width="6.75px" x="37.1923857802" y="42.4415729675" /><rect fill="#42359C" height="6.75px" rx="2px" stroke="#42359C" stroke-width="1" width="6.75px" x="41.7116621739" y="44.9508257344" /><rect fill="#42359C" height="6.75px" rx="2px" stroke="#42359C" stroke-width="1" width="6.75px" x="38.5981945098" y="45.2721762081" /><rect fill="#42359C" height="6.75px" rx="2px" stroke="#42359C" stroke-width="1" width="6.75px" x="42.8683708109" y="41.0471160077" /><rect fill="#42359C" height="8.75px" rx="2px" stroke="#42359C" stroke-width="1" width="8.75px" x="53.4869156777" y="41.5077609784" /><rect fill="#42359C" height="8.75px" rx="2px" stroke="#42359C" stroke-width="1" width="8.75px" x="57.4493454233" y="44.1695616647" /><rect fill="#42359C" height="8.75px" rx="2px" stroke="#42359C" stroke-width="1" width="8.75px" x="57.2374234347" y="44.8310918801" /><rect fill="#42359C" height="9.75px" rx="2px" stroke="#42359C" stroke-width="1" width="9.75px" x="72.5249698231" y="43.6287089475" /><rect fill="#42359C" height="9.75px" rx="2px" stroke="#42359C" stroke-width="1" width="9.75px" x="72.6622543263" y="43.4537466173" /><rect fill="#42359C" height="9.75px" rx="2px" stroke="#42359C" stroke-width="1" width="9.75px" x="85.3391159019" y="41.989361267" /><rect fill="#42359C" height="9.75px" rx="2px" stroke="#42359C" stroke-width="1" width="9.75px" x="85.429256075" y="42.1813878132" /><rect fill="#42359C" height="8.75px" rx="2px" stroke="#42359C" stroke-width="1" width="8.75px" x="104.402185773" y="44.1979377798" /><rect fill="#42359C" height="8.75px" rx="2px" stroke="#42359C" stroke-width="1" width="8.75px" x="101.898477903" y="44.8279156892" /><rect fill="#42359C" height="8.75px" rx="2px" stroke="#42359C" stroke-width="1" width="8.75px" x="101.857863092" y="42.9921410692" /><rect fill="#42359C" height="6.75px" rx="2px" stroke="#42359C" stroke-width="1" width="6.75px" x="118.529625616" y="47.8360954289" /><rect fill="#42359C" height="6.75px" rx="2px" stroke="#42359C" stroke-width="1" width="6.75px" x="123.353665292" y="43.2814146358" /><rect fill="#42359C" height="6.75px" rx="2px" stroke="#42359C" stroke-width="1" width="6.75px" x="121.751930323" y="43.8683312827" /><rect fill="#42359C" height="6.75px" rx="2px" stroke="#42359C" stroke-width="1" width="6.75px" x="123.630470026" y="44.3266759313" /><rect fill="#42359C" height="6.75px" rx="2px" stroke="#42359C" stroke-width="1" width="6.75px" x="118.920381207" y="42.7880494308" /><rect fill="#42359C" height="3.75px" rx="2px" stroke="#42359C" stroke-width="1" width="3.75px" x="136.059059112" y="47.5492323224" /><rect fill="#42359C" height="3.75px" rx="2px" stroke="#42359C" stroke-width="1" width="3.75px" x="139.241944667" y="42.5666025026" /><rect fill="#42359C" height="3.75px" rx="2px" stroke="#42359C" stroke-width="1" width="3.75px" x="140.815735701" y="46.5286350587" /><rect fill="#42359C" height="3.75px" rx="2px" stroke="#42359C" stroke-width="1" width="3.75px" x="140.980921406" y="46.43612514" /><rect fill="#42359C" height="3.75px" rx="2px" stroke="#42359C" stroke-width="1" width="3.75px" x="133.005861935" y="44.3225995843" /><rect fill="#42359C" height="3.75px" rx="2px" stroke="#42359C" stroke-width="1" width="3.75px" x="133.199636609" y="50.5232608167" /><rect fill="#42359C" height="3.75px" rx="2px" stroke="#42359C" stroke-width="1" width="3.75px" x="142.006899248" y="49.524571676" /><rect fill="#42359C" height="3.75px" rx="2px" stroke="#42359C" stroke-width="1" width="3.75px" x="136.152019785" y="41.5937329566" /><rect fill="#42359C" height="3.75px" rx="2px" stroke="#42359C" stroke-width="1" width="3.75px" x="141.999598392" y="50.7062318143" /><rect fill="#42359C" height="3.75px" rx="2px" stroke="#42359C" stroke-width="1" width="3.75px" x="133.877947884" y="45.981402249" /><rect fill="#42359C" height="3.75px" rx="2px" stroke="#42359C" stroke-width="1" width="3.75px" x="133.709428314" y="48.7961721939" /><rect fill="#42359C" height="3.75px" rx="2px" stroke="#42359C" stroke-width="1" width="3.75px" x="140.8498029" y="42.3160125111" /><rect fill="#42359C" height="3.75px" rx="2px" stroke="#42359C" stroke-width="1" width="3.75px" x="137.871644376" y="46.6354868333" /><rect fill="#42359C" height="3.75px" rx="2px" stroke="#42359C" stroke-width="1" width="3.75px" x="135.716830447" y="49.9424386711" /><rect fill="#42359C" height="3.75px" rx="2px" stroke="#42359C" stroke-width="1" width="3.75px" x="137.337163887" y="43.1709316058" /><rect fill="#42359C" height="3.75px" rx="2px" stroke="#42359C" stroke-width="1" width="3.75px" x="138.52778491" y="48.4817934582" /><rect fill="#42359C" height="3.75px" rx="2px" stroke="#42359C" stroke-width="1" width="3.75px" x="135.0617984" y="44.1950919858" /><rect fill="#42359C" height="3.75px" rx="2px" stroke="#42359C" stroke-width="1" width="3.75px" x="143.200280906" y="47.6612500908" /><rect fill="#42359C" height="9.75px" rx="2px" stroke="#42359C" stroke-width="1" width="9.75px" x="38.4368636391" y="59.5003120534" /><rect fill="#42359C" height="9.75px" rx="2px" stroke="#42359C" stroke-width="1" width="9.75px" x="37.9779876135" y="57.9359238839" /><rect fill="#42359C" height="11.75px" rx="2px" stroke="#42359C" stroke-width="1" width="11.75px" x="53.5151190136" y="59.0371950293" /><rect fill="#42359C" height="12.75px" rx="2px" stroke="#42359C" stroke-width="1" width="12.75px" x="69.297505793" y="57.8362222229" /><rect fill="#42359C" height="12.75px" rx="2px" stroke="#42359C" stroke-width="1" width="12.75px" x="86.1693928007" y="57.7138038667" /><rect fill="#42359C" height="11.75px" rx="2px" stroke="#42359C" stroke-width="1" width="11.75px" x="102.816868245" y="57.4284223073" /><rect fill="#42359C" height="9.75px" rx="2px" stroke="#42359C" stroke-width="1" width="9.75px" x="120.09857236" y="59.861799326" /><rect fill="#42359C" height="9.75px" rx="2px" stroke="#42359C" stroke-width="1" width="9.75px" x="121.182702148" y="57.4182759524" /><rect fill="#42359C" height="6.75px" rx="2px" stroke="#42359C" stroke-width="1" width="6.75px" x="136.212697902" y="63.2447810095" /><rect fill="#42359C" height="6.75px" rx="2px" stroke="#42359C" stroke-width="1" width="6.75px" x="136.989858515" y="57.3667653891" /><rect fill="#42359C" height="6.75px" rx="2px" stroke="#42359C" stroke-width="1" width="6.75px" x="140.244797896" y="63.0611999918" /><rect fill="#42359C" height="6.75px" rx="2px" stroke="#42359C" stroke-width="1" width="6.75px" x="140.025222865" y="63.7161606268" /><rect fill="#42359C" height="6.75px" rx="2px" stroke="#42359C" stroke-width="1" width="6.75px" x="139.153044075" y="58.2057555519" /><rect fill="#42359C" height="14.75px" rx="2px" stroke="#42359C" stroke-width="1" width="14.75px" x="84.6992197806" y="72.95602345" /><rect fill="#42359C" height="13.75px" rx="2px" stroke="#42359C" stroke-width="1" width="13.75px" x="101.066300765" y="73.1960176505" /><rect fill="#42359C" height="11.75px" rx="2px" stroke="#42359C" stroke-width="1" width="11.75px" x="119.153964692" y="75.2397010514" /><rect fill="#42359C" height="8.75px" rx="2px" stroke="#42359C" stroke-width="1" width="8.75px" x="135.846524807" y="76.926871692" /><rect fill="#42359C" height="8.75px" rx="2px" stroke="#42359C" stroke-width="1" width="8.75px" x="133.300117683" y="76.0669323709" /><rect fill="#42359C" height="8.75px" rx="2px" stroke="#42359C" stroke-width="1" width="8.75px" x="135.63996451" y="77.4767794333" /><rect fill="#42359C" height="15.75px" rx="2px" stroke="#42359C" stroke-width="1" width="15.75px" x="68.8598049358" y="88.6748063183" /><rect fill="#42359C" height="15.75px" rx="2px" stroke="#42359C" stroke-width="1" width="15.75px" x="84.5883931837" y="88.7901984256" /><rect fill="#42359C" height="14.75px" rx="2px" stroke="#42359C" stroke-width="1" width="14.75px" x="100.554110635" y="88.5354638673" /><rect fill="#42359C" height="12.75px" rx="2px" stroke="#42359C" stroke-width="1" width="12.75px" x="117.653478394" y="90.1683828222" /><rect fill="#42359C" height="9.75px" rx="2px" stroke="#42359C" stroke-width="1" width="9.75px" x="135.854683448" y="90.2749875891" /><rect fill="#42359C" height="9.75px" rx="2px" stroke="#42359C" stroke-width="1" width="9.75px" x="134.343753084" y="92.1954240928" /><rect fill="#42359C" height="14.75px" rx="2px" stroke="#42359C" stroke-width="1" width="14.75px" x="52.2511591694" y="104.252927664" /><rect fill="#42359C" height="15.75px" rx="2px" stroke="#42359C" stroke-width="1" width="15.75px" x="68.5358992742" y="103.366796089" /><rect fill="#42359C" height="15.75px" rx="2px" stroke="#42359C" stroke-width="1" width="15.75px" x="84.3533275947" y="104.723943043" /><rect fill="#42359C" height="12.75px" rx="2px" stroke="#42359C" stroke-width="1" width="12.75px" x="117.764597207" y="106.23404133" /><rect fill="#42359C" height="9.75px" rx="2px" stroke="#42359C" stroke-width="1" width="9.75px" x="135.819402039" y="108.990452517" /><rect fill="#42359C" height="9.75px" rx="2px" stroke="#42359C" stroke-width="1" width="9.75px" x="133.570737236" y="105.490571849" /><rect fill="#42359C" height="11.75px" rx="2px" stroke="#42359C" stroke-width="1" width="11.75px" x="37.6127834777" y="122.360867111" /><rect fill="#42359C" height="13.75px" rx="2px" stroke="#42359C" stroke-width="1" width="13.75px" x="53.1585594897" y="121.065995975" /><rect fill="#42359C" height="14.75px" rx="2px" stroke="#42359C" stroke-width="1" width="14.75px" x="68.365422215" y="120.930776149" /><rect fill="#42359C" height="11.75px" rx="2px" stroke="#42359C" stroke-width="1" width="11.75px" x="117.0079778" y="122.735018252" /><rect fill="#42359C" height="8.75px" rx="2px" stroke="#42359C" stroke-width="1" width="8.75px" x="133.395030265" y="125.636308565" /><rect fill="#42359C" height="8.75px" rx="2px" stroke="#42359C" stroke-width="1" width="8.75px" x="137.745625001" y="123.864349018" /><rect fill="#42359C" height="8.75px" rx="2px" stroke="#42359C" stroke-width="1" width="8.75px" x="137.381623854" y="124.058175224" /><rect fill="#42359C" height="6.75px" rx="2px" stroke="#42359C" stroke-width="1" width="6.75px" x="26.6558427536" y="143.409976586" /><rect fill="#42359C" height="6.75px" rx="2px" stroke="#42359C" stroke-width="1" width="6.75px" x="23.9462360763" y="141.499795949" /><rect fill="#42359C" height="6.75px" rx="2px" stroke="#42359C" stroke-width="1" width="6.75px" x="22.1205117029" y="143.741637364" /><rect fill="#42359C" height="6.75px" rx="2px" stroke="#42359C" stroke-width="1" width="6.75px" x="27.2683912976" y="144.077493739" /><rect fill="#42359C" height="6.75px" rx="2px" stroke="#42359C" stroke-width="1" width="6.75px" x="26.8780949696" y="143.390267484" /><rect fill="#42359C" height="9.75px" rx="2px" stroke="#42359C" stroke-width="1" width="9.75px" x="40.4094993405" y="140.672272121" /><rect fill="#42359C" height="9.75px" rx="2px" stroke="#42359C" stroke-width="1" width="9.75px" x="40.4456845954" y="138.133924266" /><rect fill="#42359C" height="11.75px" rx="2px" stroke="#42359C" stroke-width="1" width="11.75px" x="54.9623752615" y="138.931834816" /><rect fill="#42359C" height="9.75px" rx="2px" stroke="#42359C" stroke-width="1" width="9.75px" x="120.380218371" y="137.967280821" /><rect fill="#42359C" height="9.75px" rx="2px" stroke="#42359C" stroke-width="1" width="9.75px" x="117.100573847" y="137.8208016" /><rect fill="#42359C" height="6.75px" rx="2px" stroke="#42359C" stroke-width="1" width="6.75px" x="140.03540443" y="138.294616667" /><rect fill="#42359C" height="6.75px" rx="2px" stroke="#42359C" stroke-width="1" width="6.75px" x="139.978373789" y="138.924631128" /><rect fill="#42359C" height="6.75px" rx="2px" stroke="#42359C" stroke-width="1" width="6.75px" x="133.785918467" y="140.15058725" /><rect fill="#42359C" height="6.75px" rx="2px" stroke="#42359C" stroke-width="1" width="6.75px" x="138.28195169" y="139.274160528" /><rect fill="#42359C" height="6.75px" rx="2px" stroke="#42359C" stroke-width="1" width="6.75px" x="137.395014186" y="140.707817183" /><rect fill="#42359C" height="3.75px" rx="2px" stroke="#42359C" stroke-width="1" width="3.75px" x="25.5321379429" y="155.19043936" /><rect fill="#42359C" height="3.75px" rx="2px" stroke="#42359C" stroke-width="1" width="3.75px" x="25.8501584056" y="162.237103465" /><rect fill="#42359C" height="3.75px" rx="2px" stroke="#42359C" stroke-width="1" width="3.75px" x="29.1592537913" y="154.739336811" /><rect fill="#42359C" height="3.75px" rx="2px" stroke="#42359C" stroke-width="1" width="3.75px" x="21.8691542514" y="158.283383102" /><rect fill="#42359C" height="3.75px" rx="2px" stroke="#42359C" stroke-width="1" width="3.75px" x="27.4876437716" y="156.435679618" /><rect fill="#42359C" height="3.75px" rx="2px" stroke="#42359C" stroke-width="1" width="3.75px" x="29.3888405115" y="160.69916591" /><rect fill="#42359C" height="3.75px" rx="2px" stroke="#42359C" stroke-width="1" width="3.75px" x="27.8961556232" y="155.302566826" /><rect fill="#42359C" height="3.75px" rx="2px" stroke="#42359C" stroke-width="1" width="3.75px" x="23.0410818104" y="153.250360224" /><rect fill="#42359C" height="3.75px" rx="2px" stroke="#42359C" stroke-width="1" width="3.75px" x="23.5096360768" y="157.870147528" /><rect fill="#42359C" height="3.75px" rx="2px" stroke="#42359C" stroke-width="1" width="3.75px" x="29.7098113699" y="153.746489349" /><rect fill="#42359C" height="3.75px" rx="2px" stroke="#42359C" stroke-width="1" width="3.75px" x="25.2480203627" y="159.455095153" /><rect fill="#42359C" height="3.75px" rx="2px" stroke="#42359C" stroke-width="1" width="3.75px" x="22.9929611766" y="160.137631068" /><rect fill="#42359C" height="3.75px" rx="2px" stroke="#42359C" stroke-width="1" width="3.75px" x="26.0673659824" y="155.500840506" /><rect fill="#42359C" height="3.75px" rx="2px" stroke="#42359C" stroke-width="1" width="3.75px" x="27.7245946139" y="153.056834386" /><rect fill="#42359C" height="3.75px" rx="2px" stroke="#42359C" stroke-width="1" width="3.75px" x="28.6973858853" y="160.892973433" /><rect fill="#42359C" height="3.75px" rx="2px" stroke="#42359C" stroke-width="1" width="3.75px" x="22.0925197898" y="157.357748488" /><rect fill="#42359C" height="3.75px" rx="2px" stroke="#42359C" stroke-width="1" width="3.75px" x="22.8028384875" y="162.819151933" /><rect fill="#42359C" height="3.75px" rx="2px" stroke="#42359C" stroke-width="1" width="3.75px" x="26.309066942" y="153.514738448" /><rect fill="#42359C" height="6.75px" rx="2px" stroke="#42359C" stroke-width="1" width="6.75px" x="42.2147362193" y="156.659641695" /><rect fill="#42359C" height="6.75px" rx="2px" stroke="#42359C" stroke-width="1" width="6.75px" x="43.0216264805" y="156.972071642" /><rect fill="#42359C" height="6.75px" rx="2px" stroke="#42359C" stroke-width="1" width="6.75px" x="43.5047587484" y="158.391501956" /><rect fill="#42359C" height="6.75px" rx="2px" stroke="#42359C" stroke-width="1" width="6.75px" x="40.441389667" y="154.879138726" /><rect fill="#42359C" height="6.75px" rx="2px" stroke="#42359C" stroke-width="1" width="6.75px" x="38.7924880969" y="157.623045417" /><g style="font-size:40px; font-family:Arial; font-weight: bold; font-style: italic;"><text fill="#000000" x="180" y="120">pysparkling</text></g></svg>