<?xml version="1.0" encoding="utf-8" ?>
<svg baseProfile="full" height="128px" version="1.1" width="600px" xmlns="http://www.w3.org/2000/svg" xmlns:ev="http://www.w3.org/2001/xml-events" xmlns:xlink="http://www.w3.org/1999/xlink"><defs /><rect fill="#42359C" height="6.75px" rx="2px" stroke="#42359C" stroke-width="1" width="6.75px" x="18.5851253173" y="4.66382583875" /><rect fill="#42359C" height="6.75px" rx="2px" stroke="#42359C" stroke-width="1" width="6.75px" x="17.1923857802" y="2.44157296748" /><rect fill="#42359C" height="6.75px" rx="2px" stroke="#42359C" stroke-width="1" width="6.75px" x="21.7116621739" y="4.95082573437" /><rect fill="#42359C" height="6.75px" rx="2px" stroke="#42359C" stroke-width="1" width="6.75px" x="18.5981945098" y="5.2721762081" /><rect fill="#42359C" height="6.75px" rx="2px" stroke="#42359C" stroke-width="1" width="6.75px" x="22.8683708109" y="1.04711600767" /><rect fill="#42359C" height="8.75px" rx="2px" stroke="#42359C" stroke-width="1" width="8.75px" x="33.4869156777" y="1.50776097838" /><rect fill="#42359C" height="8.75px" rx="2px" stroke="#42359C" stroke-width="1" width="8.75px" x="37.4493454233" y="4.16956166468" /><rect fill="#42359C" height="8.75px" rx="2px" stroke="#42359C" stroke-width="1" width="8.75px" x="37.2374234347" y="4.83109188014" /><rect fill="#42359C" height="9.75px" rx="2px" stroke="#42359C" stroke-width="1" width="9.75px" x="52.5249698231" y="3.62870894755" /><rect fill="#42359C" height="9.75px" rx="2px" stroke="#42359C" stroke-width="1" width="9.75px" x="52.6622543263" y="3.45374661734" /><rect fill="#42359C" height="9.75px" rx="2px" stroke="#42359C" stroke-width="1" width="9.75px" x="65.3391159019" y="1.98936126703" /><rect fill="#42359C" height="9.75px" rx="2px" stroke="#42359C" stroke-width="1" width="9.75px" x="65.429256075" y="2.18138781322" /><rect fill="#42359C" height="8.75px" rx="2px" stroke="#42359C" stroke-width="1" width="8.75px" x="84.4021857725" y="4.19793777975" /><rect fill="#42359C" height="8.75px" rx="2px" stroke="#42359C" stroke-width="1" width="8.75px" x="81.898477903" y="4.82791568924" /><rect fill="#42359C" height="8.75px" rx="2px" stroke="#42359C" stroke-width="1" width="8.75px" x="81.8578630923" y="2.99214106923" /><rect fill="#42359C" height="6.75px" rx="2px" stroke="#42359C" stroke-width="1" width="6.75px" x="98.529625616" y="7.83609542893" /><rect fill="#42359C" height="6.75px" rx="2px" stroke="#42359C" stroke-width="1" width="6.75px" x="103.353665292" y="3.28141463579" /><rect fill="#42359C" height="6.75px" rx="2px" stroke="#42359C" stroke-width="1" width="6.75px" x="101.751930323" y="3.86833128269" /><rect fill="#42359C" height="6.75px" rx="2px" stroke="#42359C" stroke-width="1" width="6.75px" x="103.630470026" y="4.32667593126" /><rect fill="#42359C" height="6.75px" rx="2px" stroke="#42359C" stroke-width="1" width="6.75px" x="98.9203812071" y="2.78804943078" /><rect fill="#42359C" height="3.75px" rx="2px" stroke="#42359C" stroke-width="1" width="3.75px" x="116.059059112" y="7.54923232238" /><rect fill="#42359C" height="3.75px" rx="2px" stroke="#42359C" stroke-width="1" width="3.75px" x="119.241944667" y="2.56660250263" /><rect fill="#42359C" height="3.75px" rx="2px" stroke="#42359C" stroke-width="1" width="3.75px" x="120.815735701" y="6.52863505873" /><rect fill="#42359C" height="3.75px" rx="2px" stroke="#42359C" stroke-width="1" width="3.75px" x="120.980921406" y="6.43612514" /><rect fill="#42359C" height="3.75px" rx="2px" stroke="#42359C" stroke-width="1" width="3.75px" x="113.005861935" y="4.3225995843" /><rect fill="#42359C" height="3.75px" rx="2px" stroke="#42359C" stroke-width="1" width="3.75px" x="113.199636609" y="10.5232608167" /><rect fill="#42359C" height="3.75px" rx="2px" stroke="#42359C" stroke-width="1" width="3.75px" x="122.006899248" y="9.52457167595" /><rect fill="#42359C" height="3.75px" rx="2px" stroke="#42359C" stroke-width="1" width="3.75px" x="116.152019785" y="1.59373295657" /><rect fill="#42359C" height="3.75px" rx="2px" stroke="#42359C" stroke-width="1" width="3.75px" x="121.999598392" y="10.7062318143" /><rect fill="#42359C" height="3.75px" rx="2px" stroke="#42359C" stroke-width="1" width="3.75px" x="113.877947884" y="5.981402249" /><rect fill="#42359C" height="3.75px" rx="2px" stroke="#42359C" stroke-width="1" width="3.75px" x="113.709428314" y="8.79617219389" /><rect fill="#42359C" height="3.75px" rx="2px" stroke="#42359C" stroke-width="1" width="3.75px" x="120.8498029" y="2.31601251112" /><rect fill="#42359C" height="3.75px" rx="2px" stroke="#42359C" stroke-width="1" width="3.75px" x="117.871644376" y="6.63548683332" /><rect fill="#42359C" height="3.75px" rx="2px" stroke="#42359C" stroke-width="1" width="3.75px" x="115.716830447" y="9.94243867112" /><rect fill="#42359C" height="3.75px" rx="2px" stroke="#42359C" stroke-width="1" width="3.75px" x="117.337163887" y="3.17093160578" /><rect fill="#42359C" height="3.75px" rx="2px" stroke="#42359C" stroke-width="1" width="3.75px" x="118.52778491" y="8.48179345817" /><rect fill="#42359C" height="3.75px" rx="2px" stroke="#42359C" stroke-width="1" width="3.75px" x="115.0617984" y="4.19509198583" /><rect fill="#42359C" height="3.75px" rx="2px" stroke="#42359C" stroke-width="1" width="3.75px" x="123.200280906" y="7.6612500908" /><rect fill="#42359C" height="9.75px" rx="2px" stroke="#42359C" stroke-width="1" width="9.75px" x="18.4368636391" y="19.5003120534" /><rect fill="#42359C" height="9.75px" rx="2px" stroke="#42359C" stroke-width="1" width="9.75px" x="17.9779876135" y="17.9359238839" /><rect fill="#42359C" height="11.75px" rx="2px" stroke="#42359C" stroke-width="1" width="11.75px" x="33.5151190136" y="19.0371950293" /><rect fill="#42359C" height="12.75px" rx="2px" stroke="#42359C" stroke-width="1" width="12.75px" x="49.297505793" y="17.8362222229" /><rect fill="#42359C" height="12.75px" rx="2px" stroke="#42359C" stroke-width="1" width="12.75px" x="66.1693928007" y="17.7138038667" /><rect fill="#42359C" height="11.75px" rx="2px" stroke="#42359C" stroke-width="1" width="11.75px" x="82.816868245" y="17.4284223073" /><rect fill="#42359C" height="9.75px" rx="2px" stroke="#42359C" stroke-width="1" width="9.75px" x="100.09857236" y="19.861799326" /><rect fill="#42359C" height="9.75px" rx="2px" stroke="#42359C" stroke-width="1" width="9.75px" x="101.182702148" y="17.4182759524" /><rect fill="#42359C" height="6.75px" rx="2px" stroke="#42359C" stroke-width="1" width="6.75px" x="116.212697902" y="23.2447810095" /><rect fill="#42359C" height="6.75px" rx="2px" stroke="#42359C" stroke-width="1" width="6.75px" x="116.989858515" y="17.3667653891" /><rect fill="#42359C" height="6.75px" rx="2px" stroke="#42359C" stroke-width="1" width="6.75px" x="120.244797896" y="23.0611999918" /><rect fill="#42359C" height="6.75px" rx="2px" stroke="#42359C" stroke-width="1" width="6.75px" x="120.025222865" y="23.7161606268" /><rect fill="#42359C" height="6.75px" rx="2px" stroke="#42359C" stroke-width="1" width="6.75px" x="119.153044075" y="18.2057555519" /><rect fill="#42359C" height="14.75px" rx="2px" stroke="#42359C" stroke-width="1" width="14.75px" x="64.6992197806" y="32.95602345" /><rect fill="#42359C" height="13.75px" rx="2px" stroke="#42359C" stroke-width="1" width="13.75px" x="81.0663007645" y="33.1960176505" /><rect fill="#42359C" height="11.75px" rx="2px" stroke="#42359C" stroke-width="1" width="11.75px" x="99.1539646919" y="35.2397010514" /><rect fill="#42359C" height="8.75px" rx="2px" stroke="#42359C" stroke-width="1" width="8.75px" x="115.846524807" y="36.926871692" /><rect fill="#42359C" height="8.75px" rx="2px" stroke="#42359C" stroke-width="1" width="8.75px" x="113.300117683" y="36.0669323709" /><rect fill="#42359C" height="8.75px" rx="2px" stroke="#42359C" stroke-width="1" width="8.75px" x="115.63996451" y="37.4767794333" /><rect fill="#42359C" height="15.75px" rx="2px" stroke="#42359C" stroke-width="1" width="15.75px" x="48.8598049358" y="48.6748063183" /><rect fill="#42359C" height="15.75px" rx="2px" stroke="#42359C" stroke-width="1" width="15.75px" x="64.5883931837" y="48.7901984256" /><rect fill="#42359C" height="14.75px" rx="2px" stroke="#42359C" stroke-width="1" width="14.75px" x="80.5541106348" y="48.5354638673" /><rect fill="#42359C" height="12.75px" rx="2px" stroke="#42359C" stroke-width="1" width="12.75px" x="97.6534783944" y="50.1683828222" /><rect fill="#42359C" height="9.75px" rx="2px" stroke="#42359C" stroke-width="1" width="9.75px" x="115.854683448" y="50.2749875891" /><rect fill="#42359C" height="9.75px" rx="2px" stroke="#42359C" stroke-width="1" width="9.75px" x="114.343753084" y="52.1954240928" /><rect fill="#42359C" height="14.75px" rx="2px" stroke="#42359C" stroke-width="1" width="14.75px" x="32.2511591694" y="64.2529276641" /><rect fill="#42359C" height="15.75px" rx="2px" stroke="#42359C" stroke-width="1" width="15.75px" x="48.5358992742" y="63.3667960885" /><rect fill="#42359C" height="15.75px" rx="2px" stroke="#42359C" stroke-width="1" width="15.75px" x="64.3533275947" y="64.7239430434" /><rect fill="#42359C" height="12.75px" rx="2px" stroke="#42359C" stroke-width="1" width="12.75px" x="97.7645972072" y="66.2340413295" /><rect fill="#42359C" height="9.75px" rx="2px" stroke="#42359C" stroke-width="1" width="9.75px" x="115.819402039" y="68.9904525167" /><rect fill="#42359C" height="9.75px" rx="2px" stroke="#42359C" stroke-width="1" width="9.75px" x="113.570737236" y="65.4905718493" /><rect fill="#42359C" height="11.75px" rx="2px" stroke="#42359C" stroke-width="1" width="11.75px" x="17.6127834777" y="82.3608671108" /><rect fill="#42359C" height="13.75px" rx="2px" stroke="#42359C" stroke-width="1" width="13.75px" x="33.1585594897" y="81.0659959754" /><rect fill="#42359C" height="14.75px" rx="2px" stroke="#42359C" stroke-width="1" width="14.75px" x="48.365422215" y="80.9307761492" /><rect fill="#42359C" height="11.75px" rx="2px" stroke="#42359C" stroke-width="1" width="11.75px" x="97.0079778004" y="82.7350182518" /><rect fill="#42359C" height="8.75px" rx="2px" stroke="#42359C" stroke-width="1" width="8.75px" x="113.395030265" y="85.6363085648" /><rect fill="#42359C" height="8.75px" rx="2px" stroke="#42359C" stroke-width="1" width="8.75px" x="117.745625001" y="83.8643490183" /><rect fill="#42359C" height="8.75px" rx="2px" stroke="#42359C" stroke-width="1" width="8.75px" x="117.381623854" y="84.0581752241" /><rect fill="#42359C" height="6.75px" rx="2px" stroke="#42359C" stroke-width="1" width="6.75px" x="6.65584275357" y="103.409976586" /><rect fill="#42359C" height="6.75px" rx="2px" stroke="#42359C" stroke-width="1" width="6.75px" x="3.94623607628" y="101.499795949" /><rect fill="#42359C" height="6.75px" rx="2px" stroke="#42359C" stroke-width="1" width="6.75px" x="2.12051170291" y="103.741637364" /><rect fill="#42359C" height="6.75px" rx="2px" stroke="#42359C" stroke-width="1" width="6.75px" x="7.26839129759" y="104.077493739" /><rect fill="#42359C" height="6.75px" rx="2px" stroke="#42359C" stroke-width="1" width="6.75px" x="6.87809496957" y="103.390267484" /><rect fill="#42359C" height="9.75px" rx="2px" stroke="#42359C" stroke-width="1" width="9.75px" x="20.4094993405" y="100.672272121" /><rect fill="#42359C" height="9.75px" rx="2px" stroke="#42359C" stroke-width="1" width="9.75px" x="20.4456845954" y="98.1339242658" /><rect fill="#42359C" height="11.75px" rx="2px" stroke="#42359C" stroke-width="1" width="11.75px" x="34.9623752615" y="98.9318348155" /><rect fill="#42359C" height="9.75px" rx="2px" stroke="#42359C" stroke-width="1" width="9.75px" x="100.380218371" y="97.9672808215" /><rect fill="#42359C" height="9.75px" rx="2px" stroke="#42359C" stroke-width="1" width="9.75px" x="97.1005738475" y="97.8208016004" /><rect fill="#42359C" height="6.75px" rx="2px" stroke="#42359C" stroke-width="1" width="6.75px" x="120.03540443" y="98.2946166673" /><rect fill="#42359C" height="6.75px" rx="2px" stroke="#42359C" stroke-width="1" width="6.75px" x="119.978373789" y="98.9246311283" /><rect fill="#42359C" height="6.75px" rx="2px" stroke="#42359C" stroke-width="1" width="6.75px" x="113.785918467" y="100.15058725" /><rect fill="#42359C" height="6.75px" rx="2px" stroke="#42359C" stroke-width="1" width="6.75px" x="118.28195169" y="99.2741605279" /><rect fill="#42359C" height="6.75px" rx="2px" stroke="#42359C" stroke-width="1" width="6.75px" x="117.395014186" y="100.707817183" /><rect fill="#42359C" height="3.75px" rx="2px" stroke="#42359C" stroke-width="1" width="3.75px" x="5.53213794287" y="115.19043936" /><rect fill="#42359C" height="3.75px" rx="2px" stroke="#42359C" stroke-width="1" width="3.75px" x="5.85015840557" y="122.237103465" /><rect fill="#42359C" height="3.75px" rx="2px" stroke="#42359C" stroke-width="1" width="3.75px" x="9.1592537913" y="114.739336811" /><rect fill="#42359C" height="3.75px" rx="2px" stroke="#42359C" stroke-width="1" width="3.75px" x="1.86915425143" y="118.283383102" /><rect fill="#42359C" height="3.75px" rx="2px" stroke="#42359C" stroke-width="1" width="3.75px" x="7.4876437716" y="116.435679618" /><rect fill="#42359C" height="3.75px" rx="2px" stroke="#42359C" stroke-width="1" width="3.75px" x="9.3888405115" y="120.69916591" /><rect fill="#42359C" height="3.75px" rx="2px" stroke="#42359C" stroke-width="1" width="3.75px" x="7.89615562321" y="115.302566826" /><rect fill="#42359C" height="3.75px" rx="2px" stroke="#42359C" stroke-width="1" width="3.75px" x="3.04108181045" y="113.250360224" /><rect fill="#42359C" height="3.75px" rx="2px" stroke="#42359C" stroke-width="1" width="3.75px" x="3.5096360768" y="117.870147528" /><rect fill="#42359C" height="3.75px" rx="2px" stroke="#42359C" stroke-width="1" width="3.75px" x="9.7098113699" y="113.746489349" /><rect fill="#42359C" height="3.75px" rx="2px" stroke="#42359C" stroke-width="1" width="3.75px" x="5.24802036273" y="119.455095153" /><rect fill="#42359C" height="3.75px" rx="2px" stroke="#42359C" stroke-width="1" width="3.75px" x="2.99296117658" y="120.137631068" /><rect fill="#42359C" height="3.75px" rx="2px" stroke="#42359C" stroke-width="1" width="3.75px" x="6.06736598236" y="115.500840506" /><rect fill="#42359C" height="3.75px" rx="2px" stroke="#42359C" stroke-width="1" width="3.75px" x="7.7245946139" y="113.056834386" /><rect fill="#42359C" height="3.75px" rx="2px" stroke="#42359C" stroke-width="1" width="3.75px" x="8.69738588534" y="120.892973433" /><rect fill="#42359C" height="3.75px" rx="2px" stroke="#42359C" stroke-width="1" width="3.75px" x="2.09251978978" y="117.357748488" /><rect fill="#42359C" height="3.75px" rx="2px" stroke="#42359C" stroke-width="1" width="3.75px" x="2.80283848749" y="122.819151933" /><rect fill="#42359C" height="3.75px" rx="2px" stroke="#42359C" stroke-width="1" width="3.75px" x="6.30906694205" y="113.514738448" /><rect fill="#42359C" height="6.75px" rx="2px" stroke="#42359C" stroke-width="1" width="6.75px" x="22.2147362193" y="116.659641695" /><rect fill="#42359C" height="6.75px" rx="2px" stroke="#42359C" stroke-width="1" width="6.75px" x="23.0216264805" y="116.972071642" /><rect fill="#42359C" height="6.75px" rx="2px" stroke="#42359C" stroke-width="1" width="6.75px" x="23.5047587484" y="118.391501956" /><rect fill="#42359C" height="6.75px" rx="2px" stroke="#42359C" stroke-width="1" width="6.75px" x="20.441389667" y="114.879138726" /><rect fill="#42359C" height="6.75px" rx="2px" stroke="#42359C" stroke-width="1" width="6.75px" x="18.7924880969" y="117.623045417" /><g style="font-size:50px; font-family:Arial; font-weight: bold; font-style: italic;"><text fill="#000000" x="160" y="70">pysparkling</text></g></svg>