<?xml version="1.0" encoding="utf-8" ?>
<svg baseProfile="full" height="128px" version="1.1" width="128px" xmlns="http://www.w3.org/2000/svg" xmlns:ev="http://www.w3.org/2001/xml-events" xmlns:xlink="http://www.w3.org/1999/xlink"><defs /><rect fill="#42359C" height="6.75px" rx="2px" stroke="#42359C" stroke-width="1" width="6.75px" x="21.6358442888" y="1.18132797536" /><rect fill="#42359C" height="6.75px" rx="2px" stroke="#42359C" stroke-width="1" width="6.75px" x="18.9939625582" y="2.61827785158" /><rect fill="#42359C" height="6.75px" rx="2px" stroke="#42359C" stroke-width="1" width="6.75px" x="22.3394163027" y="5.90607128382" /><rect fill="#42359C" height="6.75px" rx="2px" stroke="#42359C" stroke-width="1" width="6.75px" x="23.4683018659" y="1.63030653656" /><rect fill="#42359C" height="6.75px" rx="2px" stroke="#42359C" stroke-width="1" width="6.75px" x="20.0589331927" y="1.21602984093" /><rect fill="#42359C" height="8.75px" rx="2px" stroke="#42359C" stroke-width="1" width="8.75px" x="34.1478493677" y="3.65311526254" /><rect fill="#42359C" height="8.75px" rx="2px" stroke="#42359C" stroke-width="1" width="8.75px" x="33.1393138408" y="2.0438976661" /><rect fill="#42359C" height="8.75px" rx="2px" stroke="#42359C" stroke-width="1" width="8.75px" x="36.4118932983" y="3.86094277317" /><rect fill="#42359C" height="9.75px" rx="2px" stroke="#42359C" stroke-width="1" width="9.75px" x="49.9368726437" y="3.50437915647" /><rect fill="#42359C" height="9.75px" rx="2px" stroke="#42359C" stroke-width="1" width="9.75px" x="52.4400794409" y="1.02761972863" /><rect fill="#42359C" height="9.75px" rx="2px" stroke="#42359C" stroke-width="1" width="9.75px" x="68.4247318203" y="3.9670924287" /><rect fill="#42359C" height="9.75px" rx="2px" stroke="#42359C" stroke-width="1" width="9.75px" x="66.4460646952" y="1.6607878742" /><rect fill="#42359C" height="8.75px" rx="2px" stroke="#42359C" stroke-width="1" width="8.75px" x="86.0253686291" y="2.76712136184" /><rect fill="#42359C" height="8.75px" rx="2px" stroke="#42359C" stroke-width="1" width="8.75px" x="81.4869156777" y="1.50776097838" /><rect fill="#42359C" height="8.75px" rx="2px" stroke="#42359C" stroke-width="1" width="8.75px" x="85.4493454233" y="4.16956166468" /><rect fill="#42359C" height="6.75px" rx="2px" stroke="#42359C" stroke-width="1" width="6.75px" x="102.851679981" y="6.29055545353" /><rect fill="#42359C" height="6.75px" rx="2px" stroke="#42359C" stroke-width="1" width="6.75px" x="100.887653663" y="8.05508928885" /><rect fill="#42359C" height="6.75px" rx="2px" stroke="#42359C" stroke-width="1" width="6.75px" x="99.7443742348" y="5.00229457673" /><rect fill="#42359C" height="6.75px" rx="2px" stroke="#42359C" stroke-width="1" width="6.75px" x="103.013183816" y="5.48426820464" /><rect fill="#42359C" height="6.75px" rx="2px" stroke="#42359C" stroke-width="1" width="6.75px" x="103.247375027" y="5.18580305311" /><rect fill="#42359C" height="3.75px" rx="2px" stroke="#42359C" stroke-width="1" width="3.75px" x="120.221861321" y="1.46969993247" /><rect fill="#42359C" height="3.75px" rx="2px" stroke="#42359C" stroke-width="1" width="3.75px" x="115.335957325" y="3.96622662692" /><rect fill="#42359C" height="3.75px" rx="2px" stroke="#42359C" stroke-width="1" width="3.75px" x="113.817867763" y="3.3861065852" /><rect fill="#42359C" height="3.75px" rx="2px" stroke="#42359C" stroke-width="1" width="3.75px" x="114.035264651" y="3.84922943188" /><rect fill="#42359C" height="3.75px" rx="2px" stroke="#42359C" stroke-width="1" width="3.75px" x="119.515765554" y="4.73952983444" /><rect fill="#42359C" height="3.75px" rx="2px" stroke="#42359C" stroke-width="1" width="3.75px" x="116.794354913" y="3.14744706541" /><rect fill="#42359C" height="3.75px" rx="2px" stroke="#42359C" stroke-width="1" width="3.75px" x="115.736522676" y="10.6007095241" /><rect fill="#42359C" height="3.75px" rx="2px" stroke="#42359C" stroke-width="1" width="3.75px" x="119.642362699" y="7.24359280809" /><rect fill="#42359C" height="3.75px" rx="2px" stroke="#42359C" stroke-width="1" width="3.75px" x="114.754171144" y="8.47354967899" /><rect fill="#42359C" height="3.75px" rx="2px" stroke="#42359C" stroke-width="1" width="3.75px" x="114.674875561" y="4.88941827802" /><rect fill="#42359C" height="3.75px" rx="2px" stroke="#42359C" stroke-width="1" width="3.75px" x="123.142614344" y="7.5599975385" /><rect fill="#42359C" height="3.75px" rx="2px" stroke="#42359C" stroke-width="1" width="3.75px" x="118.708734874" y="8.01729607265" /><rect fill="#42359C" height="3.75px" rx="2px" stroke="#42359C" stroke-width="1" width="3.75px" x="121.639232182" y="8.95399909335" /><rect fill="#42359C" height="3.75px" rx="2px" stroke="#42359C" stroke-width="1" width="3.75px" x="115.347742738" y="1.32902750002" /><rect fill="#42359C" height="3.75px" rx="2px" stroke="#42359C" stroke-width="1" width="3.75px" x="116.233393743" y="3.74434397875" /><rect fill="#42359C" height="3.75px" rx="2px" stroke="#42359C" stroke-width="1" width="3.75px" x="115.162574147" y="10.6648245719" /><rect fill="#42359C" height="3.75px" rx="2px" stroke="#42359C" stroke-width="1" width="3.75px" x="121.982768171" y="4.22544827818" /><rect fill="#42359C" height="3.75px" rx="2px" stroke="#42359C" stroke-width="1" width="3.75px" x="119.718246319" y="5.05522698587" /><rect fill="#42359C" height="9.75px" rx="2px" stroke="#42359C" stroke-width="1" width="9.75px" x="20.8868272564" y="18.9501203735" /><rect fill="#42359C" height="9.75px" rx="2px" stroke="#42359C" stroke-width="1" width="9.75px" x="18.1257407076" y="18.0481669077" /><rect fill="#42359C" height="11.75px" rx="2px" stroke="#42359C" stroke-width="1" width="11.75px" x="34.2630783019" y="17.5911686192" /><rect fill="#42359C" height="12.75px" rx="2px" stroke="#42359C" stroke-width="1" width="12.75px" x="49.7307324878" y="18.1222786045" /><rect fill="#42359C" height="12.75px" rx="2px" stroke="#42359C" stroke-width="1" width="12.75px" x="65.4992506314" y="17.2741509489" /><rect fill="#42359C" height="11.75px" rx="2px" stroke="#42359C" stroke-width="1" width="11.75px" x="83.2444596146" y="18.1464341608" /><rect fill="#42359C" height="9.75px" rx="2px" stroke="#42359C" stroke-width="1" width="9.75px" x="97.3863650017" y="17.2002445956" /><rect fill="#42359C" height="9.75px" rx="2px" stroke="#42359C" stroke-width="1" width="9.75px" x="97.466008804" y="19.6666456772" /><rect fill="#42359C" height="6.75px" rx="2px" stroke="#42359C" stroke-width="1" width="6.75px" x="118.742575392" y="20.0606597593" /><rect fill="#42359C" height="6.75px" rx="2px" stroke="#42359C" stroke-width="1" width="6.75px" x="113.46057587" y="19.7667398272" /><rect fill="#42359C" height="6.75px" rx="2px" stroke="#42359C" stroke-width="1" width="6.75px" x="120.221880007" y="20.836079002" /><rect fill="#42359C" height="6.75px" rx="2px" stroke="#42359C" stroke-width="1" width="6.75px" x="120.040318238" y="23.2406528412" /><rect fill="#42359C" height="6.75px" rx="2px" stroke="#42359C" stroke-width="1" width="6.75px" x="113.083237409" y="22.2252331904" /><rect fill="#42359C" height="14.75px" rx="2px" stroke="#42359C" stroke-width="1" width="14.75px" x="64.4887172232" y="32.5972722522" /><rect fill="#42359C" height="13.75px" rx="2px" stroke="#42359C" stroke-width="1" width="13.75px" x="81.0667062975" y="33.1602404496" /><rect fill="#42359C" height="11.75px" rx="2px" stroke="#42359C" stroke-width="1" width="11.75px" x="97.2509923906" y="33.978221814" /><rect fill="#42359C" height="8.75px" rx="2px" stroke="#42359C" stroke-width="1" width="8.75px" x="115.382049458" y="38.0075336195" /><rect fill="#42359C" height="8.75px" rx="2px" stroke="#42359C" stroke-width="1" width="8.75px" x="117.598227937" y="34.3827925164" /><rect fill="#42359C" height="8.75px" rx="2px" stroke="#42359C" stroke-width="1" width="8.75px" x="115.628077094" y="33.9379223728" /><rect fill="#42359C" height="15.75px" rx="2px" stroke="#42359C" stroke-width="1" width="15.75px" x="47.4029012811" y="47.4765925028" /><rect fill="#42359C" height="15.75px" rx="2px" stroke="#42359C" stroke-width="1" width="15.75px" x="64.477721615" y="47.881838384" /><rect fill="#42359C" height="14.75px" rx="2px" stroke="#42359C" stroke-width="1" width="14.75px" x="80.5432723414" y="48.8853705486" /><rect fill="#42359C" height="12.75px" rx="2px" stroke="#42359C" stroke-width="1" width="12.75px" x="97.9531385001" y="49.6742237876" /><rect fill="#42359C" height="9.75px" rx="2px" stroke="#42359C" stroke-width="1" width="9.75px" x="116.309162534" y="51.2540031068" /><rect fill="#42359C" height="9.75px" rx="2px" stroke="#42359C" stroke-width="1" width="9.75px" x="113.002430559" y="50.3776632423" /><rect fill="#42359C" height="14.75px" rx="2px" stroke="#42359C" stroke-width="1" width="14.75px" x="32.9853924432" y="64.3031760378" /><rect fill="#42359C" height="15.75px" rx="2px" stroke="#42359C" stroke-width="1" width="15.75px" x="47.4622367138" y="63.5445853236" /><rect fill="#42359C" height="15.75px" rx="2px" stroke="#42359C" stroke-width="1" width="15.75px" x="64.4618502805" y="64.8986309586" /><rect fill="#42359C" height="12.75px" rx="2px" stroke="#42359C" stroke-width="1" width="12.75px" x="98.097511999" y="66.1836868066" /><rect fill="#42359C" height="9.75px" rx="2px" stroke="#42359C" stroke-width="1" width="9.75px" x="113.364027171" y="67.0654594691" /><rect fill="#42359C" height="9.75px" rx="2px" stroke="#42359C" stroke-width="1" width="9.75px" x="113.294153203" y="68.2325592023" /><rect fill="#42359C" height="11.75px" rx="2px" stroke="#42359C" stroke-width="1" width="11.75px" x="18.7231274659" y="81.2888807951" /><rect fill="#42359C" height="13.75px" rx="2px" stroke="#42359C" stroke-width="1" width="13.75px" x="33.1188205945" y="81.1374508984" /><rect fill="#42359C" height="14.75px" rx="2px" stroke="#42359C" stroke-width="1" width="14.75px" x="48.8012075283" y="80.3456752192" /><rect fill="#42359C" height="11.75px" rx="2px" stroke="#42359C" stroke-width="1" width="11.75px" x="97.9520603655" y="81.4765459622" /><rect fill="#42359C" height="8.75px" rx="2px" stroke="#42359C" stroke-width="1" width="8.75px" x="115.831304466" y="84.8321381127" /><rect fill="#42359C" height="8.75px" rx="2px" stroke="#42359C" stroke-width="1" width="8.75px" x="114.056043083" y="82.6365105293" /><rect fill="#42359C" height="8.75px" rx="2px" stroke="#42359C" stroke-width="1" width="8.75px" x="118.224534122" y="84.4118598026" /><rect fill="#42359C" height="6.75px" rx="2px" stroke="#42359C" stroke-width="1" width="6.75px" x="4.17622560838" y="100.752424848" /><rect fill="#42359C" height="6.75px" rx="2px" stroke="#42359C" stroke-width="1" width="6.75px" x="1.87728042004" y="98.6290556935" /><rect fill="#42359C" height="6.75px" rx="2px" stroke="#42359C" stroke-width="1" width="6.75px" x="3.45112032557" y="101.265238209" /><rect fill="#42359C" height="6.75px" rx="2px" stroke="#42359C" stroke-width="1" width="6.75px" x="2.66833181133" y="98.5965760373" /><rect fill="#42359C" height="6.75px" rx="2px" stroke="#42359C" stroke-width="1" width="6.75px" x="1.51469987357" y="101.57549644" /><rect fill="#42359C" height="9.75px" rx="2px" stroke="#42359C" stroke-width="1" width="9.75px" x="17.9730025812" y="100.848035055" /><rect fill="#42359C" height="9.75px" rx="2px" stroke="#42359C" stroke-width="1" width="9.75px" x="20.6534504511" y="97.301143737" /><rect fill="#42359C" height="11.75px" rx="2px" stroke="#42359C" stroke-width="1" width="11.75px" x="33.5355104273" y="98.5052000012" /><rect fill="#42359C" height="9.75px" rx="2px" stroke="#42359C" stroke-width="1" width="9.75px" x="97.9105064313" y="97.5623253571" /><rect fill="#42359C" height="9.75px" rx="2px" stroke="#42359C" stroke-width="1" width="9.75px" x="100.975935522" y="99.4269331466" /><rect fill="#42359C" height="6.75px" rx="2px" stroke="#42359C" stroke-width="1" width="6.75px" x="116.426864941" y="102.688490826" /><rect fill="#42359C" height="6.75px" rx="2px" stroke="#42359C" stroke-width="1" width="6.75px" x="118.854353234" y="98.3804718791" /><rect fill="#42359C" height="6.75px" rx="2px" stroke="#42359C" stroke-width="1" width="6.75px" x="113.702748403" y="100.125121072" /><rect fill="#42359C" height="6.75px" rx="2px" stroke="#42359C" stroke-width="1" width="6.75px" x="116.070945017" y="100.385928843" /><rect fill="#42359C" height="6.75px" rx="2px" stroke="#42359C" stroke-width="1" width="6.75px" x="118.285799909" y="101.881892968" /><rect fill="#42359C" height="3.75px" rx="2px" stroke="#42359C" stroke-width="1" width="3.75px" x="11.0876934165" y="114.008783179" /><rect fill="#42359C" height="3.75px" rx="2px" stroke="#42359C" stroke-width="1" width="3.75px" x="5.12686814155" y="116.477851705" /><rect fill="#42359C" height="3.75px" rx="2px" stroke="#42359C" stroke-width="1" width="3.75px" x="9.83214349762" y="115.548727423" /><rect fill="#42359C" height="3.75px" rx="2px" stroke="#42359C" stroke-width="1" width="3.75px" x="2.94964131152" y="117.598288865" /><rect fill="#42359C" height="3.75px" rx="2px" stroke="#42359C" stroke-width="1" width="3.75px" x="5.3242868083" y="115.855087733" /><rect fill="#42359C" height="3.75px" rx="2px" stroke="#42359C" stroke-width="1" width="3.75px" x="3.56051609079" y="122.463472393" /><rect fill="#42359C" height="3.75px" rx="2px" stroke="#42359C" stroke-width="1" width="3.75px" x="5.5420901368" y="121.828828324" /><rect fill="#42359C" height="3.75px" rx="2px" stroke="#42359C" stroke-width="1" width="3.75px" x="6.64083445261" y="113.518530378" /><rect fill="#42359C" height="3.75px" rx="2px" stroke="#42359C" stroke-width="1" width="3.75px" x="11.2426453012" y="121.569282747" /><rect fill="#42359C" height="3.75px" rx="2px" stroke="#42359C" stroke-width="1" width="3.75px" x="10.9322116372" y="122.495261576" /><rect fill="#42359C" height="3.75px" rx="2px" stroke="#42359C" stroke-width="1" width="3.75px" x="9.69913127775" y="114.704688884" /><rect fill="#42359C" height="3.75px" rx="2px" stroke="#42359C" stroke-width="1" width="3.75px" x="5.97782153587" y="115.190909817" /><rect fill="#42359C" height="3.75px" rx="2px" stroke="#42359C" stroke-width="1" width="3.75px" x="5.11066299863" y="113.60101285" /><rect fill="#42359C" height="3.75px" rx="2px" stroke="#42359C" stroke-width="1" width="3.75px" x="4.88447446951" y="123.099415649" /><rect fill="#42359C" height="3.75px" rx="2px" stroke="#42359C" stroke-width="1" width="3.75px" x="3.71833134626" y="121.03672367" /><rect fill="#42359C" height="3.75px" rx="2px" stroke="#42359C" stroke-width="1" width="3.75px" x="5.66383576523" y="117.335826731" /><rect fill="#42359C" height="3.75px" rx="2px" stroke="#42359C" stroke-width="1" width="3.75px" x="10.8125058188" y="123.203082567" /><rect fill="#42359C" height="3.75px" rx="2px" stroke="#42359C" stroke-width="1" width="3.75px" x="6.69662531491" y="120.363684822" /><rect fill="#42359C" height="6.75px" rx="2px" stroke="#42359C" stroke-width="1" width="6.75px" x="18.1222769832" y="115.151131735" /><rect fill="#42359C" height="6.75px" rx="2px" stroke="#42359C" stroke-width="1" width="6.75px" x="24.023142896" y="117.199057108" /><rect fill="#42359C" height="6.75px" rx="2px" stroke="#42359C" stroke-width="1" width="6.75px" x="20.93091521" y="118.422822813" /><rect fill="#42359C" height="6.75px" rx="2px" stroke="#42359C" stroke-width="1" width="6.75px" x="17.4144482286" y="117.23528756" /><rect fill="#42359C" height="6.75px" rx="2px" stroke="#42359C" stroke-width="1" width="6.75px" x="20.6456652762" y="119.182219217" /></svg>