<?xml version="1.0" encoding="utf-8" ?>
<svg baseProfile="full" height="128px" version="1.1" width="128px" xmlns="http://www.w3.org/2000/svg" xmlns:ev="http://www.w3.org/2001/xml-events" xmlns:xlink="http://www.w3.org/1999/xlink"><defs /><rect fill="#42359C" height="6.75px" rx="2px" stroke="#FAE5A5" stroke-width="1" width="6.75px" x="21.6358442888" y="1.18132797536" /><rect fill="#42359C" height="6.75px" rx="2px" stroke="#FAE5A5" stroke-width="1" width="6.75px" x="18.9939625582" y="2.61827785158" /><rect fill="#42359C" height="6.75px" rx="2px" stroke="#FAE5A5" stroke-width="1" width="6.75px" x="22.3394163027" y="5.90607128382" /><rect fill="#42359C" height="6.75px" rx="2px" stroke="#FAE5A5" stroke-width="1" width="6.75px" x="23.4683018659" y="1.63030653656" /><rect fill="#42359C" height="6.75px" rx="2px" stroke="#FAE5A5" stroke-width="1" width="6.75px" x="20.0589331927" y="1.21602984093" /><rect fill="#42359C" height="8.75px" rx="2px" stroke="#FAE5A5" stroke-width="1" width="8.75px" x="37.2305510721" y="4.66523182369" /><rect fill="#42359C" height="8.75px" rx="2px" stroke="#FAE5A5" stroke-width="1" width="8.75px" x="34.7863152117" y="1.81626737401" /><rect fill="#42359C" height="8.75px" rx="2px" stroke="#FAE5A5" stroke-width="1" width="8.75px" x="38.0253686291" y="2.76712136184" /><rect fill="#42359C" height="9.75px" rx="2px" stroke="#FAE5A5" stroke-width="1" width="9.75px" x="51.2789693887" y="5.13574199691" /><rect fill="#42359C" height="9.75px" rx="2px" stroke="#FAE5A5" stroke-width="1" width="9.75px" x="50.6087711031" y="3.34617268291" /><rect fill="#42359C" height="9.75px" rx="2px" stroke="#FAE5A5" stroke-width="1" width="9.75px" x="67.9944303039" y="1.19475363054" /><rect fill="#42359C" height="9.75px" rx="2px" stroke="#FAE5A5" stroke-width="1" width="9.75px" x="65.9685676715" y="2.22989884531" /><rect fill="#42359C" height="8.75px" rx="2px" stroke="#FAE5A5" stroke-width="1" width="8.75px" x="84.3373433324" y="2.91536893959" /><rect fill="#42359C" height="8.75px" rx="2px" stroke="#FAE5A5" stroke-width="1" width="8.75px" x="82.9434500774" y="2.09991191155" /><rect fill="#42359C" height="8.75px" rx="2px" stroke="#FAE5A5" stroke-width="1" width="8.75px" x="82.4016335658" y="5.91743658549" /><rect fill="#42359C" height="6.75px" rx="2px" stroke="#FAE5A5" stroke-width="1" width="6.75px" x="104.174044292" y="5.63999825894" /><rect fill="#42359C" height="6.75px" rx="2px" stroke="#FAE5A5" stroke-width="1" width="6.75px" x="101.037885642" y="5.96345331968" /><rect fill="#42359C" height="6.75px" rx="2px" stroke="#FAE5A5" stroke-width="1" width="6.75px" x="103.110676421" y="6.62599935871" /><rect fill="#42359C" height="6.75px" rx="2px" stroke="#FAE5A5" stroke-width="1" width="6.75px" x="98.6605985217" y="1.2327267683" /><rect fill="#42359C" height="6.75px" rx="2px" stroke="#FAE5A5" stroke-width="1" width="6.75px" x="99.2870345984" y="2.94112135082" /><rect fill="#42359C" height="3.75px" rx="2px" stroke="#FAE5A5" stroke-width="1" width="3.75px" x="118.754023375" y="3.69310148736" /><rect fill="#42359C" height="3.75px" rx="2px" stroke="#FAE5A5" stroke-width="1" width="3.75px" x="118.9920064" y="10.2026845569" /><rect fill="#42359C" height="3.75px" rx="2px" stroke="#FAE5A5" stroke-width="1" width="3.75px" x="117.093855178" y="3.24803778136" /><rect fill="#42359C" height="3.75px" rx="2px" stroke="#FAE5A5" stroke-width="1" width="3.75px" x="123.224760467" y="6.22264451018" /><rect fill="#42359C" height="3.75px" rx="2px" stroke="#FAE5A5" stroke-width="1" width="3.75px" x="113.931821475" y="1.4829428481" /><rect fill="#42359C" height="3.75px" rx="2px" stroke="#FAE5A5" stroke-width="1" width="3.75px" x="114.123903586" y="7.43132192746" /><rect fill="#42359C" height="3.75px" rx="2px" stroke="#FAE5A5" stroke-width="1" width="3.75px" x="121.118813485" y="5.3271396597" /><rect fill="#42359C" height="3.75px" rx="2px" stroke="#FAE5A5" stroke-width="1" width="3.75px" x="113.651158988" y="4.91159768669" /><rect fill="#42359C" height="3.75px" rx="2px" stroke="#FAE5A5" stroke-width="1" width="3.75px" x="123.210244147" y="6.42342203727" /><rect fill="#42359C" height="3.75px" rx="2px" stroke="#FAE5A5" stroke-width="1" width="3.75px" x="122.953553371" y="9.8229919479" /><rect fill="#42359C" height="3.75px" rx="2px" stroke="#FAE5A5" stroke-width="1" width="3.75px" x="113.117680475" y="8.38739864844" /><rect fill="#42359C" height="3.75px" rx="2px" stroke="#FAE5A5" stroke-width="1" width="3.75px" x="119.987531283" y="6.50394588669" /><rect fill="#42359C" height="3.75px" rx="2px" stroke="#FAE5A5" stroke-width="1" width="3.75px" x="115.734958197" y="7.56985843544" /><rect fill="#42359C" height="3.75px" rx="2px" stroke="#FAE5A5" stroke-width="1" width="3.75px" x="114.143409779" y="5.45634381936" /><rect fill="#42359C" height="3.75px" rx="2px" stroke="#FAE5A5" stroke-width="1" width="3.75px" x="117.65066799" y="10.7766132571" /><rect fill="#42359C" height="3.75px" rx="2px" stroke="#FAE5A5" stroke-width="1" width="3.75px" x="121.977492639" y="3.6997377702" /><rect fill="#42359C" height="3.75px" rx="2px" stroke="#FAE5A5" stroke-width="1" width="3.75px" x="118.131007659" y="2.83118177543" /><rect fill="#42359C" height="3.75px" rx="2px" stroke="#FAE5A5" stroke-width="1" width="3.75px" x="122.354435353" y="9.92281534083" /><rect fill="#42359C" height="9.75px" rx="2px" stroke="#FAE5A5" stroke-width="1" width="9.75px" x="18.8619253566" y="19.1996973244" /><rect fill="#42359C" height="9.75px" rx="2px" stroke="#FAE5A5" stroke-width="1" width="9.75px" x="17.5142678324" y="17.9549636824" /><rect fill="#42359C" height="11.75px" rx="2px" stroke="#FAE5A5" stroke-width="1" width="11.75px" x="33.1597344435" y="18.4199816539" /><rect fill="#42359C" height="12.75px" rx="2px" stroke="#FAE5A5" stroke-width="1" width="12.75px" x="50.0745442503" y="17.0885716874" /><rect fill="#42359C" height="12.75px" rx="2px" stroke="#FAE5A5" stroke-width="1" width="12.75px" x="65.2677960092" y="17.1653898109" /><rect fill="#42359C" height="11.75px" rx="2px" stroke="#FAE5A5" stroke-width="1" width="11.75px" x="82.0635098092" y="18.7653937047" /><rect fill="#42359C" height="9.75px" rx="2px" stroke="#FAE5A5" stroke-width="1" width="9.75px" x="97.4119559605" y="18.8319675252" /><rect fill="#42359C" height="9.75px" rx="2px" stroke="#FAE5A5" stroke-width="1" width="9.75px" x="98.8002091478" y="18.9848548392" /><rect fill="#42359C" height="6.75px" rx="2px" stroke="#FAE5A5" stroke-width="1" width="6.75px" x="115.919004295" y="19.4599438891" /><rect fill="#42359C" height="6.75px" rx="2px" stroke="#FAE5A5" stroke-width="1" width="6.75px" x="119.247125889" y="18.8027584209" /><rect fill="#42359C" height="6.75px" rx="2px" stroke="#FAE5A5" stroke-width="1" width="6.75px" x="114.379014586" y="20.2524482218" /><rect fill="#42359C" height="6.75px" rx="2px" stroke="#FAE5A5" stroke-width="1" width="6.75px" x="116.058641889" y="19.0194522988" /><rect fill="#42359C" height="6.75px" rx="2px" stroke="#FAE5A5" stroke-width="1" width="6.75px" x="114.811096747" y="23.6936755948" /><rect fill="#42359C" height="14.75px" rx="2px" stroke="#FAE5A5" stroke-width="1" width="14.75px" x="64.6357691559" y="32.8396895256" /><rect fill="#42359C" height="13.75px" rx="2px" stroke="#FAE5A5" stroke-width="1" width="13.75px" x="81.0947432797" y="33.2463272109" /><rect fill="#42359C" height="11.75px" rx="2px" stroke="#FAE5A5" stroke-width="1" width="11.75px" x="98.0237688265" y="33.9517668435" /><rect fill="#42359C" height="8.75px" rx="2px" stroke="#FAE5A5" stroke-width="1" width="8.75px" x="115.917783698" y="36.7716434453" /><rect fill="#42359C" height="8.75px" rx="2px" stroke="#FAE5A5" stroke-width="1" width="8.75px" x="113.812683333" y="34.5577160838" /><rect fill="#42359C" height="8.75px" rx="2px" stroke="#FAE5A5" stroke-width="1" width="8.75px" x="118.085724166" y="36.0406965268" /><rect fill="#42359C" height="15.75px" rx="2px" stroke="#FAE5A5" stroke-width="1" width="15.75px" x="48.7244927261" y="47.3186369193" /><rect fill="#42359C" height="15.75px" rx="2px" stroke="#FAE5A5" stroke-width="1" width="15.75px" x="63.9586885637" y="47.8183780312" /><rect fill="#42359C" height="14.75px" rx="2px" stroke="#FAE5A5" stroke-width="1" width="14.75px" x="80.3322845144" y="48.8153384892" /><rect fill="#42359C" height="12.75px" rx="2px" stroke="#FAE5A5" stroke-width="1" width="12.75px" x="97.5240311442" y="49.7295903616" /><rect fill="#42359C" height="9.75px" rx="2px" stroke="#FAE5A5" stroke-width="1" width="9.75px" x="113.868101598" y="52.0438151534" /><rect fill="#42359C" height="9.75px" rx="2px" stroke="#FAE5A5" stroke-width="1" width="9.75px" x="114.014415299" y="50.6820898489" /><rect fill="#42359C" height="14.75px" rx="2px" stroke="#FAE5A5" stroke-width="1" width="14.75px" x="32.9455926641" y="64.656285858" /><rect fill="#42359C" height="15.75px" rx="2px" stroke="#FAE5A5" stroke-width="1" width="15.75px" x="48.8717937381" y="64.6269799535" /><rect fill="#42359C" height="15.75px" rx="2px" stroke="#FAE5A5" stroke-width="1" width="15.75px" x="63.458487696" y="63.4612770757" /><rect fill="#42359C" height="12.75px" rx="2px" stroke="#FAE5A5" stroke-width="1" width="12.75px" x="98.0421811933" y="65.8794249064" /><rect fill="#42359C" height="9.75px" rx="2px" stroke="#FAE5A5" stroke-width="1" width="9.75px" x="115.77939935" y="65.0332482054" /><rect fill="#42359C" height="9.75px" rx="2px" stroke="#FAE5A5" stroke-width="1" width="9.75px" x="116.472692574" y="66.2723596968" /><rect fill="#42359C" height="11.75px" rx="2px" stroke="#FAE5A5" stroke-width="1" width="11.75px" x="17.2408309498" y="82.244753192" /><rect fill="#42359C" height="13.75px" rx="2px" stroke="#FAE5A5" stroke-width="1" width="13.75px" x="33.1794030468" y="81.0508993281" /><rect fill="#42359C" height="14.75px" rx="2px" stroke="#FAE5A5" stroke-width="1" width="14.75px" x="48.6336011109" y="80.3209976317" /><rect fill="#42359C" height="11.75px" rx="2px" stroke="#FAE5A5" stroke-width="1" width="11.75px" x="97.9530454883" y="81.6225305039" /><rect fill="#42359C" height="8.75px" rx="2px" stroke="#FAE5A5" stroke-width="1" width="8.75px" x="116.344845231" y="82.3752651278" /><rect fill="#42359C" height="8.75px" rx="2px" stroke="#FAE5A5" stroke-width="1" width="8.75px" x="116.891462269" y="83.8963222109" /><rect fill="#42359C" height="8.75px" rx="2px" stroke="#FAE5A5" stroke-width="1" width="8.75px" x="115.245356325" y="81.0507659229" /><rect fill="#42359C" height="6.75px" rx="2px" stroke="#FAE5A5" stroke-width="1" width="6.75px" x="2.07367994536" y="97.9239800148" /><rect fill="#42359C" height="6.75px" rx="2px" stroke="#FAE5A5" stroke-width="1" width="6.75px" x="3.23487303699" y="103.517615793" /><rect fill="#42359C" height="6.75px" rx="2px" stroke="#FAE5A5" stroke-width="1" width="6.75px" x="6.77188671044" y="103.24009372" /><rect fill="#42359C" height="6.75px" rx="2px" stroke="#FAE5A5" stroke-width="1" width="6.75px" x="7.51720361482" y="98.523054903" /><rect fill="#42359C" height="6.75px" rx="2px" stroke="#FAE5A5" stroke-width="1" width="6.75px" x="2.80909060937" y="97.7452537571" /><rect fill="#42359C" height="9.75px" rx="2px" stroke="#FAE5A5" stroke-width="1" width="9.75px" x="17.1053420381" y="100.130399005" /><rect fill="#42359C" height="9.75px" rx="2px" stroke="#FAE5A5" stroke-width="1" width="9.75px" x="18.4117882388" y="100.955967516" /><rect fill="#42359C" height="11.75px" rx="2px" stroke="#FAE5A5" stroke-width="1" width="11.75px" x="34.7715926456" y="97.2432151594" /><rect fill="#42359C" height="9.75px" rx="2px" stroke="#FAE5A5" stroke-width="1" width="9.75px" x="97.9453432996" y="100.470493074" /><rect fill="#42359C" height="9.75px" rx="2px" stroke="#FAE5A5" stroke-width="1" width="9.75px" x="98.9562887474" y="98.2970611862" /><rect fill="#42359C" height="6.75px" rx="2px" stroke="#FAE5A5" stroke-width="1" width="6.75px" x="115.379899146" y="103.26655883" /><rect fill="#42359C" height="6.75px" rx="2px" stroke="#FAE5A5" stroke-width="1" width="6.75px" x="120.009946004" y="99.0236561972" /><rect fill="#42359C" height="6.75px" rx="2px" stroke="#FAE5A5" stroke-width="1" width="6.75px" x="117.650742605" y="99.8976682866" /><rect fill="#42359C" height="6.75px" rx="2px" stroke="#FAE5A5" stroke-width="1" width="6.75px" x="120.113335232" y="100.88756406" /><rect fill="#42359C" height="6.75px" rx="2px" stroke="#FAE5A5" stroke-width="1" width="6.75px" x="119.809469267" y="97.8362277009" /><rect fill="#42359C" height="3.75px" rx="2px" stroke="#FAE5A5" stroke-width="1" width="3.75px" x="4.94825319178" y="118.910027446" /><rect fill="#42359C" height="3.75px" rx="2px" stroke="#FAE5A5" stroke-width="1" width="3.75px" x="3.61090568792" y="120.265049159" /><rect fill="#42359C" height="3.75px" rx="2px" stroke="#FAE5A5" stroke-width="1" width="3.75px" x="1.01733560174" y="122.487145446" /><rect fill="#42359C" height="3.75px" rx="2px" stroke="#FAE5A5" stroke-width="1" width="3.75px" x="6.5191329702" y="120.374157491" /><rect fill="#42359C" height="3.75px" rx="2px" stroke="#FAE5A5" stroke-width="1" width="3.75px" x="8.60498829785" y="119.87394217" /><rect fill="#42359C" height="3.75px" rx="2px" stroke="#FAE5A5" stroke-width="1" width="3.75px" x="4.73327008576" y="113.717231564" /><rect fill="#42359C" height="3.75px" rx="2px" stroke="#FAE5A5" stroke-width="1" width="3.75px" x="7.80843627034" y="116.384550369" /><rect fill="#42359C" height="3.75px" rx="2px" stroke="#FAE5A5" stroke-width="1" width="3.75px" x="4.21763536185" y="121.692156615" /><rect fill="#42359C" height="3.75px" rx="2px" stroke="#FAE5A5" stroke-width="1" width="3.75px" x="8.37748119589" y="116.078303249" /><rect fill="#42359C" height="3.75px" rx="2px" stroke="#FAE5A5" stroke-width="1" width="3.75px" x="4.17016778764" y="117.186027313" /><rect fill="#42359C" height="3.75px" rx="2px" stroke="#FAE5A5" stroke-width="1" width="3.75px" x="5.12460396734" y="116.030465826" /><rect fill="#42359C" height="3.75px" rx="2px" stroke="#FAE5A5" stroke-width="1" width="3.75px" x="2.30469994036" y="117.309574921" /><rect fill="#42359C" height="3.75px" rx="2px" stroke="#FAE5A5" stroke-width="1" width="3.75px" x="10.638727625" y="119.942508939" /><rect fill="#42359C" height="3.75px" rx="2px" stroke="#FAE5A5" stroke-width="1" width="3.75px" x="10.2537568438" y="119.309027889" /><rect fill="#42359C" height="3.75px" rx="2px" stroke="#FAE5A5" stroke-width="1" width="3.75px" x="4.0847362143" y="118.616356435" /><rect fill="#42359C" height="3.75px" rx="2px" stroke="#FAE5A5" stroke-width="1" width="3.75px" x="1.0041608819" y="115.940865598" /><rect fill="#42359C" height="3.75px" rx="2px" stroke="#FAE5A5" stroke-width="1" width="3.75px" x="5.4063535374" y="118.944844007" /><rect fill="#42359C" height="3.75px" rx="2px" stroke="#FAE5A5" stroke-width="1" width="3.75px" x="7.71073264296" y="117.76612895" /><rect fill="#42359C" height="6.75px" rx="2px" stroke="#FAE5A5" stroke-width="1" width="6.75px" x="18.8066875275" y="119.150438518" /><rect fill="#42359C" height="6.75px" rx="2px" stroke="#FAE5A5" stroke-width="1" width="6.75px" x="20.3093482347" y="118.810270362" /><rect fill="#42359C" height="6.75px" rx="2px" stroke="#FAE5A5" stroke-width="1" width="6.75px" x="21.8399385613" y="120.162220285" /><rect fill="#42359C" height="6.75px" rx="2px" stroke="#FAE5A5" stroke-width="1" width="6.75px" x="21.3170293089" y="119.887787161" /><rect fill="#42359C" height="6.75px" rx="2px" stroke="#FAE5A5" stroke-width="1" width="6.75px" x="23.4628379621" y="117.44172934" /></svg>